<svg width="130" height="130" viewBox="0 0 130 130" fill="none" xmlns="http://www.w3.org/2000/svg">
<g clip-path="url(#clip0)">
<path d="M54.0938 27.7744C55.1457 27.7744 55.998 26.9221 55.998 25.8701V23.178C55.998 22.126 55.1457 21.2737 54.0938 21.2737C53.0418 21.2737 52.1895 22.126 52.1895 23.178V25.8701C52.1895 26.9218 53.0418 27.7744 54.0938 27.7744Z" fill="#FF5672"/>
<path d="M76.3506 35.8782L78.2541 33.9746C78.9978 33.2307 78.9978 32.0251 78.2541 31.2815C77.5102 30.538 76.3046 30.538 75.5609 31.2815L73.6574 33.185C72.9137 33.9289 72.9137 35.1345 73.6574 35.8782C74.0294 36.2499 74.5168 36.4358 75.0041 36.4358C75.4913 36.4358 75.9786 36.2499 76.3506 35.8782Z" fill="#FF5672"/>
<path d="M86.3562 57.3459C87.4082 57.3459 88.2605 56.4936 88.2605 55.4417C88.2605 54.3897 87.4082 53.5374 86.3562 53.5374H83.6641C82.6121 53.5374 81.7598 54.3897 81.7598 55.4417C81.7598 56.4936 82.6121 57.3459 83.6641 57.3459H86.3562Z" fill="#FF5672"/>
<path d="M52.9727 85.7964V88.4886C52.9727 89.5405 53.825 90.3929 54.877 90.3929C55.9289 90.3929 56.7812 89.5405 56.7812 88.4886V85.7964C56.7812 84.7445 55.9289 83.8921 54.877 83.8921C53.825 83.8921 52.9727 84.7447 52.9727 85.7964Z" fill="#FF5672"/>
<path d="M29.9327 79.6023C30.3047 79.974 30.7922 80.1599 31.2795 80.1599C31.7667 80.1599 32.2542 79.974 32.6262 79.6023L34.5297 77.6988C35.2734 76.9548 35.2734 75.7493 34.5297 75.0056C33.7858 74.2621 32.5802 74.2621 31.8365 75.0056L29.933 76.9091C29.189 77.6528 29.189 78.8583 29.9327 79.6023Z" fill="#FF5672"/>
<path d="M24.521 57.3459C25.573 57.3459 26.4253 56.4936 26.4253 55.4417C26.4253 54.3897 25.573 53.5374 24.521 53.5374H21.8291C20.7772 53.5374 19.9248 54.3897 19.9248 55.4417C19.9248 56.4936 20.7772 57.3459 21.8291 57.3459H24.521Z" fill="#FF5672"/>
<path d="M31.837 35.8782C32.209 36.2499 32.6965 36.4358 33.1837 36.4358C33.671 36.4358 34.1585 36.2499 34.5305 35.8782C35.2742 35.1342 35.2742 33.9287 34.5305 33.185L32.6269 31.2815C31.883 30.538 30.6774 30.538 29.9337 31.2815C29.1901 32.0254 29.1901 33.231 29.9337 33.9746L31.837 35.8782Z" fill="#FF5672"/>
<path d="M52.1895 56.2246C52.1895 58.0022 54.4007 58.7964 55.5418 57.4614L62.4234 49.4052C63.1061 48.6057 63.0117 47.4034 62.2121 46.7204C61.4123 46.0379 60.2103 46.1324 59.5273 46.9317L55.9983 51.0632V38.2031C55.9983 37.1512 55.1459 36.2988 54.094 36.2988C53.0421 36.2988 52.1897 37.1512 52.1897 38.2031V56.2246H52.1895Z" fill="#FF5672"/>
<path d="M103.093 72.8021C102.861 72.1508 102.294 71.6762 101.613 71.5622C100.356 71.3522 99.0896 71.2456 97.849 71.2456C85.3487 71.2456 75.1787 81.4156 75.1787 93.9161C75.1787 106.416 85.3487 116.586 97.849 116.586C104.362 116.586 110.568 113.776 114.877 108.875C115.333 108.356 115.472 107.63 115.241 106.979C115.009 106.328 114.442 105.853 113.761 105.739C98.9933 103.269 93.1147 85.6335 102.729 74.6977C103.185 74.1787 103.324 73.4533 103.093 72.8021ZM109.651 108.623C106.325 111.292 102.168 112.778 97.849 112.778C87.4485 112.778 78.9873 104.317 78.9873 93.9164C78.9873 83.5583 87.3792 75.1235 97.721 75.055C89.9423 87.3796 95.6788 103.903 109.651 108.623Z" fill="#FF5672"/>
<path d="M18.3028 73.5858L18.3027 73.5858C17.2726 74.181 16.9199 75.4986 17.5151 76.5289L17.7315 76.4038L17.5151 76.5289C24.8258 89.1843 38.496 97.6575 54.0937 97.6575C56.2151 97.6575 58.3383 97.4978 60.4336 97.1817C60.6798 99.8315 61.221 102.397 62.0273 104.844C59.4086 105.262 56.7502 105.476 54.0937 105.476C26.5045 105.476 4.05859 83.0308 4.05859 55.4416C4.05859 27.8523 26.5045 5.40698 54.0935 5.40698C65.427 5.40698 76.1135 9.10135 85.0005 16.0917C85.9353 16.8271 87.2898 16.6653 88.0254 15.7304C88.7614 14.7951 88.5993 13.4407 87.6641 12.7054C78.0111 5.1121 66.4014 1.09839 54.0935 1.09839C24.128 1.09839 -0.25 25.4764 -0.25 55.4416C-0.25 85.4068 24.128 109.785 54.0935 109.785C57.3049 109.785 60.5196 109.499 63.6741 108.938C69.3045 120.731 81.3471 128.901 95.2651 128.901C102.514 128.901 109.47 126.702 115.38 122.542C116.353 121.857 116.586 120.514 115.901 119.541C115.216 118.568 113.873 118.334 112.899 119.019C107.719 122.666 101.622 124.593 95.2649 124.593C78.7351 124.593 64.5881 111.228 64.5881 93.9165C64.5881 77.0015 78.3498 63.2397 95.2649 63.2397C112.18 63.2397 125.941 77.0015 125.941 93.9165C125.941 101.427 123.197 108.655 118.215 114.269C117.425 115.159 117.506 116.521 118.396 117.311L118.562 117.124L118.396 117.311C119.286 118.1 120.647 118.019 121.437 117.129L121.25 116.963L121.437 117.129C127.12 110.726 130.25 102.482 130.25 93.9165C130.25 79.1576 121.064 66.5066 108.111 61.3754C108.326 59.3996 108.437 57.411 108.437 55.4418C108.437 41.4676 103.142 28.1884 93.5275 18.0517C92.7086 17.1883 91.3448 17.1523 90.4818 17.9713C89.6185 18.7903 89.5826 20.1538 90.4015 21.0169C99.2532 30.35 104.128 42.5752 104.128 55.4421C104.128 56.959 104.056 58.4897 103.917 60.016C101.425 59.3799 98.8281 59.0123 96.1574 58.945C96.2551 57.7771 96.3096 56.6058 96.3096 55.4418C96.3096 32.1635 77.3718 13.2257 54.0937 13.2257C30.8156 13.2257 11.8773 32.1635 11.8773 55.4416C11.8773 60.1317 12.6435 64.7437 14.1549 69.1486C14.4616 70.0429 15.298 70.6043 16.1924 70.6043C16.4247 70.6043 16.6606 70.5666 16.8919 70.4871C18.0172 70.101 18.6166 68.876 18.2303 67.7505C16.8738 63.7967 16.1862 59.6555 16.1862 55.4416C16.1862 34.5395 33.1916 17.5341 54.0937 17.5341C74.9956 17.5341 92.001 34.5395 92.001 55.4416C92.001 56.6559 91.9395 57.8811 91.8217 59.1018C74.4927 60.8031 60.8333 75.1977 60.2966 92.8386C58.2503 93.1758 56.1712 93.3489 54.0937 93.3489C40.5941 93.3489 28.0071 86.078 21.2458 74.3735C20.6505 73.343 19.3327 72.9913 18.3028 73.5858Z" fill="#FF5672" stroke="#FF5672" stroke-width="0.5"/>
</g>
<defs>
<clipPath id="clip0">
<rect width="130" height="130" fill="white"/>
</clipPath>
</defs>
</svg>
