<svg width="130" height="130" viewBox="0 0 130 130" fill="none" xmlns="http://www.w3.org/2000/svg">
<g clip-path="url(#clip0)">
<path d="M97.7831 18.8338L98.0094 18.7479C100.112 24.2868 99.5713 29.3668 96.4035 33.405C93.668 36.8924 93.8992 41.2093 94.8521 44.7121C95.3274 46.4593 95.9789 47.9901 96.5162 49.0909C96.7847 49.641 97.0243 50.083 97.1984 50.3899C97.2855 50.5434 97.3562 50.663 97.4058 50.7455C97.4307 50.7867 97.4502 50.8186 97.464 50.8408L97.4801 50.8666C97.4842 50.8731 97.486 50.8759 97.4859 50.8758L97.4863 50.8764C98.2059 51.9899 97.8858 53.4752 96.7739 54.1947L96.7738 54.1948C96.3716 54.4548 95.9197 54.5794 95.473 54.5794C94.6867 54.5794 93.9148 54.1929 93.4554 53.4823L93.4553 53.4823C93.2766 53.2058 91.1711 49.887 90.0548 45.4253C88.9385 40.9636 88.8029 35.3183 92.6265 30.4428L92.6265 30.4428C95.1549 27.2193 94.6493 23.4017 93.4595 20.3237C92.2742 17.2572 90.4321 14.99 90.3777 14.9239C89.5315 13.9073 89.6658 12.3967 90.6825 11.547L97.7831 18.8338ZM97.7831 18.8338L98.0094 18.7479C96.512 14.8027 94.1697 11.9762 94.0629 11.8486M97.7831 18.8338L94.0629 11.8486M94.0629 11.8486C93.2131 10.8317 91.6993 10.6967 90.6825 11.547L94.0629 11.8486Z" fill="#FF5672" stroke="#FF5672" stroke-width="0.5"/>
<path d="M112.44 18.7479L112.44 18.7479C114.542 24.2868 114.001 29.3668 110.834 33.405C108.098 36.8924 108.33 41.2093 109.283 44.7121C109.758 46.4593 110.409 47.9901 110.947 49.0909C111.215 49.6411 111.455 50.083 111.629 50.3899C111.716 50.5434 111.786 50.663 111.836 50.7455C111.861 50.7868 111.881 50.8187 111.894 50.8409L111.91 50.8668L111.915 50.8741L111.916 50.8761L111.916 50.8764C112.636 51.9898 112.317 53.4752 111.204 54.1948L111.204 54.1949C110.801 54.4548 110.349 54.5794 109.903 54.5794C109.116 54.5794 108.345 54.1928 107.886 53.4823L107.886 53.4823C107.707 53.2058 105.601 49.887 104.485 45.4254C103.368 40.9636 103.232 35.3183 107.056 30.4428L107.056 30.4428C109.59 27.2128 109.077 23.3863 107.882 20.3053C106.692 17.237 104.849 14.9735 104.807 14.9233C103.961 13.9066 104.097 12.396 105.112 11.547L112.44 18.7479ZM112.44 18.7479C110.941 14.8023 108.599 11.9757 108.492 11.8485L112.44 18.7479ZM108.492 11.8484C107.643 10.8316 106.129 10.6968 105.112 11.547L108.492 11.8484Z" fill="#FF5672" stroke="#FF5672" stroke-width="0.5"/>
<path d="M22.1677 19.7442L22.1677 19.7442C24.2699 25.2831 23.7296 30.3631 20.5618 34.4013L20.3862 34.2636L20.5618 34.4013C17.8259 37.8887 18.0572 42.2057 19.0101 45.7085C19.4853 47.4556 20.1368 48.9864 20.6741 50.0873C20.9426 50.6374 21.1822 51.0793 21.3563 51.3863C21.4433 51.5397 21.5139 51.6594 21.5636 51.7419C21.5884 51.7831 21.608 51.8151 21.6217 51.8373L21.6379 51.8632L21.6424 51.8704L21.6437 51.8724L21.6438 51.8726L21.6441 51.8731L21.4339 52.0084C22.0792 53.0053 21.7932 54.3366 20.7963 54.9812C20.4358 55.2143 20.0313 55.3258 19.6313 55.3258C18.9262 55.3258 18.2357 54.9793 17.8242 54.3429C17.479 53.8091 9.46709 41.1741 16.9821 31.5934C22.2104 24.9275 14.8043 15.8512 14.7285 15.7601L22.1677 19.7442ZM22.1677 19.7442C20.6696 15.7991 18.328 12.9726 18.2211 12.8449L22.1677 19.7442Z" fill="#FF5672" stroke="#FF5672" stroke-width="0.5"/>
<path d="M36.598 19.7442L36.598 19.7443C38.6996 25.2831 38.1593 30.3631 34.9915 34.4013L34.809 34.2582L34.9915 34.4013C32.2556 37.8887 32.4869 42.2057 33.4398 45.7085C33.9151 47.4556 34.5665 48.9864 35.1038 50.0873C35.3723 50.6374 35.6119 51.0793 35.786 51.3863C35.873 51.5397 35.9437 51.6594 35.9933 51.7419C36.0181 51.7831 36.0377 51.8151 36.0515 51.8373L36.0676 51.8632L36.0721 51.8704L36.0734 51.8724L36.0735 51.8726L36.0738 51.8731L35.8636 52.0084C36.5089 53.0053 36.2229 54.3366 35.226 54.9812L36.598 19.7442ZM36.598 19.7442C35.1006 15.799 32.7583 12.9726 32.6515 12.8449L36.598 19.7442Z" fill="#FF5672" stroke="#FF5672" stroke-width="0.5"/>
<path d="M65.1895 47.3819V50.4512H64.8086V47.3819C64.8086 46.3949 64.2042 45.509 63.2864 45.1479L63.2862 45.1478C61.5609 44.4703 60.4491 42.8478 60.4491 41.0134C60.4491 38.559 62.4468 36.5613 64.9019 36.5613H64.9021H64.9023H64.9025H64.9027H64.9029H64.9031H64.9033H64.9035H64.9037H64.904H64.9042H64.9044H64.9046H64.9048H64.9051H64.9053H64.9055H64.9057H64.906H64.9062H64.9065H64.9067H64.9069H64.9072H64.9074H64.9077H64.9079H64.9082H64.9084H64.9087H64.9089H64.9092H64.9095H64.9097H64.91H64.9102H64.9105H64.9108H64.9111H64.9113H64.9116H64.9119H64.9122H64.9124H64.9127H64.913H64.9133H64.9136H64.9139H64.9142H64.9145H64.9148H64.9151H64.9154H64.9156H64.916H64.9163H64.9166H64.9169H64.9172H64.9175H64.9178H64.9181H64.9184H64.9188H64.9191H64.9194H64.9197H64.92H64.9204H64.9207H64.921H64.9213H64.9217H64.922H64.9223H64.9227H64.923H64.9234H64.9237H64.924H64.9244H64.9247H64.9251H64.9254H64.9258H64.9261H64.9265H64.9268H64.9272H64.9276H64.9279H64.9283H64.9286H64.929H64.9294H64.9297H64.9301H64.9305H64.9308H64.9312H64.9316H64.9319H64.9323H64.9327H64.9331H64.9334H64.9338H64.9342H64.9346H64.935H64.9354H64.9357H64.9361H64.9365H64.9369H64.9373H64.9377H64.9381H64.9385H64.9389H64.9393H64.9397H64.9401H64.9405H64.9409H64.9413H64.9417H64.9421H64.9425H64.9429H64.9433H64.9437H64.9441H64.9445H64.9449H64.9454H64.9458H64.9462H64.9466H64.947H64.9474H64.9478H64.9483H64.9487H64.9491H64.9495H64.95H64.9504H64.9508H64.9512H64.9517H64.9521H64.9525H64.9529H64.9534H64.9538H64.9542H64.9547H64.9551H64.9555H64.956H64.9564H64.9568H64.9573H64.9577H64.9582H64.9586H64.959H64.9595H64.9599H64.9604H64.9608H64.9613H64.9617H64.9622H64.9626H64.963H64.9635H64.9639H64.9644H64.9648H64.9653H64.9657H64.9662H64.9666H64.9671H64.9676H64.968H64.9685H64.9689H64.9694H64.9698H64.9703H64.9707H64.9712H64.9717H64.9721H64.9726H64.973H64.9735H64.974H64.9744H64.9749H64.9753H64.9758H64.9763H64.9767H64.9772H64.9777H64.9781H64.9786H64.979H64.9795H64.98H64.9804H64.9809H64.9814H64.9818H64.9823H64.9828H64.9833H64.9837H64.9842H64.9847H64.9851H64.9856H64.9861H64.9865H64.987H64.9875H64.988H64.9884H64.9889H64.9894H64.9898H64.9903H64.9908H64.9912H64.9917H64.9922H64.9927H64.9931H64.9936H64.9941H64.9946H64.995H64.9955H64.996H64.9964H64.9969H64.9974H64.9979H64.9983H64.9988H64.9993H64.9998H65.0002H65.0007H65.0012H65.0016H65.0021H65.0026H65.0031H65.0035H65.004H65.0045H65.005H65.0054H65.0059H65.0064H65.0069H65.0073H65.0078H65.0083H65.0087H65.0092H65.0097H65.0101H65.0106H65.0111H65.0116H65.012H65.0125H65.013H65.0134H65.0139H65.0144H65.0148H65.0153H65.0158H65.0162H65.0167H65.0172H65.0176H65.0181H65.0186H65.019H65.0195H65.02H65.0204H65.0209H65.0214H65.0218H65.0223H65.0228H65.0232H65.0237H65.0241H65.0246H65.0251H65.0255H65.026H65.0264H65.0269H65.0274H65.0278H65.0283H65.0287H65.0292H65.0296H65.0301H65.0305H65.031H65.0314H65.0319H65.0323H65.0328H65.0332H65.0337H65.0341H65.0346H65.035H65.0355H65.0359H65.0364H65.0368H65.0373H65.0377H65.0382H65.0386H65.039H65.0395H65.0399H65.0404H65.0408H65.0412H65.0417H65.0421H65.0425H65.043H65.0434H65.0438H65.0443H65.0447H65.0451H65.0456H65.046H65.0464H65.0468H65.0473H65.0477H65.0481H65.0485H65.049H65.0494H65.0498H65.0502H65.0506H65.051H65.0515H65.0519H65.0523H65.0527H65.0531H65.0535H65.0539H65.0544H65.0548H65.0552H65.0556H65.056H65.0564H65.0568H65.0572H65.0576H65.058H65.0584H65.0588H65.0592H65.0596H65.06H65.0604H65.0607H65.0611H65.0615H65.0619H65.0623H65.0627H65.0631H65.0634H65.0638H65.0642H65.0646H65.065H65.0653H65.0657H65.0661H65.0665H65.0668H65.0672H65.0676H65.0679H65.0683H65.0687H65.069H65.0694H65.0698H65.0701H65.0705H65.0708H65.0712H65.0715H65.0719H65.0722H65.0726H65.0729H65.0733H65.0736H65.074H65.0743H65.0746H65.075H65.0753H65.0757H65.076H65.0763H65.0767H65.077H65.0773H65.0776H65.078H65.0783H65.0786H65.0789H65.0792H65.0796H65.0799H65.0802H65.0805H65.0808H65.0811H65.0814H65.0817H65.082H65.0823H65.0826H65.0829H65.0832H65.0835H65.0838H65.0841H65.0844H65.0847H65.085H65.0852H65.0855H65.0858H65.0861H65.0864H65.0866H65.0869H65.0872H65.0874H65.0877H65.088H65.0882H65.0885H65.0888H65.089H65.0893H65.0895H65.0898H65.09H65.0903H65.0905H65.0908H65.091H65.0912H65.0915H65.0917H65.0919H65.0922H65.0924H65.0926H65.0929H65.0931H65.0933H65.0935H65.0937H65.094H65.0942H65.0944H65.0946H65.0948H65.095H65.0952H65.0954H65.0956H65.0958H65.096H65.0962C67.5513 36.5613 69.549 38.559 69.549 41.0134C69.549 42.8478 68.4371 44.4709 66.712 45.1478C65.7931 45.5084 65.1895 46.3951 65.1895 47.3819ZM125.449 111.621V111.679C125.418 113.081 124.269 114.212 122.863 114.212H7.13538C5.70945 114.212 4.54894 113.049 4.54894 111.621V108.933C4.54894 107.507 5.70961 106.347 7.13538 106.347H10.6647C10.6674 106.347 10.6713 106.347 10.6802 106.348C10.6904 106.349 10.708 106.35 10.7279 106.35H87.9304C89.2551 106.35 90.3302 105.276 90.3302 103.95C90.3302 102.626 89.2552 101.551 87.9304 101.551H16.2638C17.5146 75.8727 38.7455 55.3539 64.7043 55.2501C64.7045 55.2501 64.7047 55.2501 64.7048 55.2501H65.2939C65.2941 55.2501 65.2943 55.2501 65.2944 55.2501C91.2538 55.3539 112.484 75.872 113.735 101.551H101.836C100.51 101.551 99.4358 102.626 99.4358 103.95C99.4358 105.276 100.51 106.35 101.836 106.35L118.437 106.347H122.863C124.289 106.347 125.449 107.507 125.449 108.933V111.621ZM122.863 101.547H118.543C117.355 74.7896 96.4188 53.0818 69.9897 50.6737V48.8537C72.6831 47.1864 74.3498 44.2601 74.3498 41.0134C74.3498 35.912 70.1988 31.7617 65.0975 31.7617H65.0973H65.0971H65.0969H65.0967H65.0965H65.0963H65.0961H65.0959H65.0957H65.0954H65.0952H65.095H65.0948H65.0946H65.0944H65.0941H65.0939H65.0937H65.0935H65.0932H65.093H65.0928H65.0925H65.0923H65.092H65.0918H65.0915H65.0913H65.091H65.0908H65.0905H65.0903H65.09H65.0898H65.0895H65.0892H65.089H65.0887H65.0884H65.0882H65.0879H65.0876H65.0873H65.0871H65.0868H65.0865H65.0862H65.0859H65.0856H65.0854H65.0851H65.0848H65.0845H65.0842H65.0839H65.0836H65.0833H65.083H65.0827H65.0824H65.0821H65.0817H65.0814H65.0811H65.0808H65.0805H65.0802H65.0798H65.0795H65.0792H65.0789H65.0786H65.0782H65.0779H65.0776H65.0772H65.0769H65.0766H65.0762H65.0759H65.0755H65.0752H65.0749H65.0745H65.0742H65.0738H65.0735H65.0731H65.0728H65.0724H65.0721H65.0717H65.0713H65.071H65.0706H65.0703H65.0699H65.0695H65.0692H65.0688H65.0684H65.068H65.0677H65.0673H65.0669H65.0666H65.0662H65.0658H65.0654H65.065H65.0647H65.0643H65.0639H65.0635H65.0631H65.0627H65.0623H65.0619H65.0615H65.0612H65.0608H65.0604H65.06H65.0596H65.0592H65.0588H65.0584H65.058H65.0576H65.0572H65.0568H65.0563H65.0559H65.0555H65.0551H65.0547H65.0543H65.0539H65.0535H65.0531H65.0526H65.0522H65.0518H65.0514H65.051H65.0505H65.0501H65.0497H65.0493H65.0488H65.0484H65.048H65.0476H65.0471H65.0467H65.0463H65.0458H65.0454H65.045H65.0445H65.0441H65.0437H65.0432H65.0428H65.0424H65.0419H65.0415H65.041H65.0406H65.0402H65.0397H65.0393H65.0388H65.0384H65.0379H65.0375H65.0371H65.0366H65.0362H65.0357H65.0353H65.0348H65.0344H65.0339H65.0335H65.033H65.0326H65.0321H65.0316H65.0312H65.0307H65.0303H65.0298H65.0294H65.0289H65.0285H65.028H65.0275H65.0271H65.0266H65.0262H65.0257H65.0252H65.0248H65.0243H65.0238H65.0234H65.0229H65.0224H65.022H65.0215H65.0211H65.0206H65.0201H65.0197H65.0192H65.0187H65.0183H65.0178H65.0173H65.0168H65.0164H65.0159H65.0154H65.015H65.0145H65.014H65.0136H65.0131H65.0126H65.0121H65.0117H65.0112H65.0107H65.0103H65.0098H65.0093H65.0088H65.0084H65.0079H65.0074H65.007H65.0065H65.006H65.0055H65.0051H65.0046H65.0041H65.0036H65.0032H65.0027H65.0022H65.0017H65.0013H65.0008H65.0003H64.9998H64.9994H64.9989H64.9984H64.9979H64.9975H64.997H64.9965H64.9961H64.9956H64.9951H64.9946H64.9942H64.9937H64.9932H64.9927H64.9923H64.9918H64.9913H64.9909H64.9904H64.9899H64.9894H64.989H64.9885H64.988H64.9875H64.9871H64.9866H64.9861H64.9857H64.9852H64.9847H64.9843H64.9838H64.9833H64.9829H64.9824H64.9819H64.9815H64.981H64.9805H64.9801H64.9796H64.9791H64.9787H64.9782H64.9777H64.9773H64.9768H64.9763H64.9759H64.9754H64.975H64.9745H64.974H64.9736H64.9731H64.9726H64.9722H64.9717H64.9713H64.9708H64.9704H64.9699H64.9695H64.969H64.9685H64.9681H64.9676H64.9672H64.9667H64.9663H64.9658H64.9654H64.9649H64.9645H64.964H64.9636H64.9631H64.9627H64.9622H64.9618H64.9614H64.9609H64.9605H64.96H64.9596H64.9592H64.9587H64.9583H64.9578H64.9574H64.957H64.9565H64.9561H64.9557H64.9552H64.9548H64.9544H64.9539H64.9535H64.9531H64.9526H64.9522H64.9518H64.9514H64.9509H64.9505H64.9501H64.9497H64.9493H64.9488H64.9484H64.948H64.9476H64.9472H64.9468H64.9463H64.9459H64.9455H64.9451H64.9447H64.9443H64.9439H64.9435H64.9431H64.9427H64.9423H64.9419H64.9415H64.9411H64.9407H64.9403H64.9399H64.9395H64.9391H64.9387H64.9383H64.9379H64.9375H64.9371H64.9368H64.9364H64.936H64.9356H64.9352H64.9348H64.9345H64.9341H64.9337H64.9333H64.933H64.9326H64.9322H64.9319H64.9315H64.9311H64.9308H64.9304H64.93H64.9297H64.9293H64.9289H64.9286H64.9282H64.9279H64.9275H64.9272H64.9268H64.9265H64.9261H64.9258H64.9254H64.9251H64.9248H64.9244H64.9241H64.9238H64.9234H64.9231H64.9228H64.9224H64.9221H64.9218H64.9214H64.9211H64.9208H64.9205H64.9202H64.9198H64.9195H64.9192H64.9189H64.9186H64.9183H64.918H64.9177H64.9174H64.9171H64.9168H64.9165H64.9162H64.9159H64.9156H64.9153H64.915H64.9147H64.9144H64.9141H64.9139H64.9136H64.9133H64.913H64.9128H64.9125H64.9122H64.9119H64.9117H64.9114H64.9111H64.9109H64.9106H64.9104H64.9101H64.9099H64.9096H64.9093H64.9091H64.9089H64.9086H64.9084H64.9081H64.9079H64.9077H64.9074H64.9072H64.907H64.9067H64.9065H64.9063H64.9061H64.9058H64.9056H64.9054H64.9052H64.905H64.9048H64.9046H64.9044H64.9042H64.904H64.9038H64.9036H64.9034H64.9032C59.8012 31.7617 55.6508 35.9121 55.6508 41.0134C55.6508 44.26 57.3181 47.187 60.0103 48.8537V50.6737C33.5818 53.0818 12.6448 74.789 11.4571 101.547H7.13666C3.06337 101.547 -0.25 104.861 -0.25 108.933V111.621C-0.25 115.697 3.06323 119.012 7.13602 119.012H122.864C126.937 119.012 130.25 115.697 130.25 111.621V108.933C130.249 104.861 126.936 101.547 122.863 101.547Z" fill="#FF5672" stroke="#FF5672" stroke-width="0.5"/>
</g>
<defs>
<clipPath id="clip0">
<rect width="130" height="130" fill="white"/>
</clipPath>
</defs>
</svg>
