<svg width="130" height="130" viewBox="0 0 130 130" fill="none" xmlns="http://www.w3.org/2000/svg">
<g clip-path="url(#clip0)">
<path d="M129.749 71.0051C128.582 59.2648 123.337 48.1966 114.98 39.8391C107.838 32.6974 99.0963 28.1079 89.8982 26.0673V19.6159C93.655 18.6813 96.4475 15.2807 96.4475 11.2387C96.4475 6.47835 92.5749 2.60571 87.8146 2.60571H69.5331C64.7728 2.60571 60.9001 6.47835 60.9001 11.2387C60.9001 15.2804 63.6926 18.681 67.4492 19.6159V26.0853C58.2792 28.1346 49.5666 32.7177 42.4449 39.8394C40.8864 41.3979 39.4493 43.0328 38.1338 44.732C38.07 44.7271 38.0063 44.7223 37.9413 44.7223H19.8474C18.4453 44.7223 17.3083 45.8591 17.3083 47.2614C17.3083 48.6638 18.4453 49.8005 19.8474 49.8005H34.6788C32.8171 52.9173 31.316 56.1904 30.1734 59.5598H2.5391C1.13701 59.5598 0 60.6966 0 62.0989C0 63.5013 1.13701 64.638 2.5391 64.638H28.7386C28.0068 67.8502 27.5868 71.1193 27.4784 74.3976H16.2503C14.8482 74.3976 13.7112 75.5343 13.7112 76.9367C13.7112 78.339 14.8482 79.4758 16.2503 79.4758H27.5594C27.7737 82.7624 28.3021 86.0317 29.1448 89.2353H12.6955C11.2934 89.2353 10.1564 90.3721 10.1564 91.7744C10.1564 93.1768 11.2934 94.3135 12.6955 94.3135H30.7653C33.2561 100.903 37.1488 107.079 42.4449 112.375C50.8102 120.74 61.8899 125.986 73.6423 127.147C75.3197 127.313 76.9983 127.395 78.6746 127.395C88.5827 127.395 98.3648 124.528 106.665 119.122C107.84 118.357 108.173 116.784 107.407 115.609C106.642 114.434 105.069 114.101 103.894 114.867C85.7249 126.698 61.3919 124.14 46.0357 108.784C28.0177 90.7659 28.0177 61.4486 46.0357 43.4304C64.0534 25.4127 93.3707 25.4127 111.389 43.4304C126.725 58.7666 129.297 83.0787 117.505 101.239C116.741 102.415 117.075 103.988 118.251 104.751C119.428 105.515 121 105.181 121.763 104.005C128.064 94.3013 130.9 82.5821 129.749 71.0051ZM65.9783 11.2389C65.9783 9.27873 67.5729 7.68417 69.5331 7.68417H87.8146C89.7748 7.68417 91.3693 9.27873 91.3693 11.2389C91.3693 13.1991 89.7748 14.7937 87.8146 14.7937H87.3591H69.9883H69.5331C67.5729 14.7937 65.9783 13.1988 65.9783 11.2389ZM72.5274 25.2124V19.8719H84.82V25.2032C80.7381 24.7177 76.6085 24.7208 72.5274 25.2124Z" fill="#FF5672"/>
<path d="M113.186 108.039C112.515 108.039 111.863 108.31 111.391 108.783C110.916 109.255 110.646 109.91 110.646 110.578C110.646 111.246 110.916 111.901 111.391 112.373C111.863 112.848 112.515 113.117 113.186 113.117C113.853 113.117 114.506 112.848 114.981 112.373C115.453 111.901 115.725 111.246 115.725 110.578C115.725 109.91 115.453 109.255 114.981 108.783C114.506 108.31 113.853 108.039 113.186 108.039Z" fill="#FF5672"/>
<path d="M78.7131 36.7178C56.9941 36.7178 39.3242 54.3874 39.3242 76.1066C39.3242 97.8258 56.9941 115.495 78.7131 115.495C100.432 115.495 118.102 97.8258 118.102 76.1066C118.102 54.3874 100.432 36.7178 78.7131 36.7178ZM78.7131 110.417C59.794 110.417 44.4024 95.0255 44.4024 76.1066C44.4024 57.1878 59.794 41.796 78.7131 41.796C97.6322 41.796 113.024 57.1878 113.024 76.1066C113.024 95.0255 97.6322 110.417 78.7131 110.417Z" fill="#FF5672"/>
<path d="M94.7733 56.4546L82.1971 69.0305C81.1454 68.5105 79.9625 68.2167 78.712 68.2167C77.4612 68.2167 76.2785 68.5105 75.2268 69.0305L69.5984 63.4021C68.6066 62.4105 66.9993 62.4105 66.0073 63.4021C65.0158 64.3936 65.0158 66.0013 66.0073 66.9929L71.6357 72.6213C71.1155 73.673 70.822 74.856 70.822 76.1065C70.822 80.457 74.3612 83.9965 78.712 83.9965C83.0627 83.9965 86.602 80.457 86.602 76.1065C86.602 74.856 86.3082 73.673 85.7882 72.6213L97.9952 60.4143L98.3641 60.0454C99.3556 59.0539 99.3556 57.4461 98.3641 56.4546C97.3726 55.4631 95.7653 55.4631 94.7733 56.4546ZM78.712 78.9185C77.1616 78.9185 75.9002 77.6571 75.9002 76.1067C75.9002 74.5563 77.1616 73.2949 78.712 73.2949C80.2623 73.2949 81.5238 74.5563 81.5238 76.1067C81.5238 77.6571 80.2623 78.9185 78.712 78.9185Z" fill="#FF5672"/>
<path d="M105.86 73.5986H103.508C102.106 73.5986 100.969 74.7354 100.969 76.1377C100.969 77.54 102.106 78.6768 103.508 78.6768H105.86C107.262 78.6768 108.399 77.54 108.399 76.1377C108.399 74.7354 107.262 73.5986 105.86 73.5986Z" fill="#FF5672"/>
<path d="M53.9166 73.5366H51.5645C50.1624 73.5366 49.0254 74.6734 49.0254 76.0757C49.0254 77.478 50.1624 78.6147 51.5645 78.6147H53.9166C55.3187 78.6147 56.4557 77.478 56.4557 76.0757C56.4557 74.6734 55.3187 73.5366 53.9166 73.5366Z" fill="#FF5672"/>
<path d="M78.7441 53.85C80.1462 53.85 81.2832 52.7133 81.2832 51.3109V48.9587C81.2832 47.5564 80.1462 46.4197 78.7441 46.4197C77.3421 46.4197 76.2051 47.5564 76.2051 48.9587V51.3109C76.2051 52.7133 77.3421 53.85 78.7441 53.85Z" fill="#FF5672"/>
<path d="M78.6816 98.3633C77.2796 98.3633 76.1426 99.5 76.1426 100.902V103.255C76.1426 104.657 77.2796 105.794 78.6816 105.794C80.0837 105.794 81.2207 104.657 81.2207 103.255V100.902C81.2207 99.5 80.0837 98.3633 78.6816 98.3633Z" fill="#FF5672"/>
<path d="M2.53906 89.2344C1.87129 89.2344 1.21621 89.5061 0.743945 89.9783C0.27168 90.4506 0 91.1057 0 91.7734C0 92.4438 0.271426 93.0963 0.743945 93.5686C1.21646 94.0408 1.87129 94.3125 2.53906 94.3125C3.20684 94.3125 3.86191 94.0408 4.33393 93.5686C4.80619 93.0963 5.07812 92.4412 5.07812 91.7734C5.07812 91.1057 4.80645 90.4506 4.33393 89.9783C3.86191 89.5061 3.20684 89.2344 2.53906 89.2344Z" fill="#FF5672"/>
</g>
<defs>
<clipPath id="clip0">
<rect width="130" height="130" fill="white"/>
</clipPath>
</defs>
</svg>
