<svg width="130" height="130" viewBox="0 0 130 130" fill="none" xmlns="http://www.w3.org/2000/svg">
<path d="M40.625 1.78125L40.6247 1.78125C37.8658 1.78435 35.2208 2.88168 33.27 4.83251C31.3192 6.78334 30.2218 9.42834 30.2188 12.1872V12.1875L30.2187 117.812L30.2188 117.813C30.2218 120.572 31.3192 123.217 33.27 125.167C35.2208 127.118 37.8658 128.216 40.6247 128.219H40.625H89.375H89.3753C92.1342 128.216 94.7792 127.118 96.73 125.167C98.6808 123.217 99.7782 120.572 99.7812 117.813V117.812V12.1875V12.1872C99.7782 9.42834 98.6808 6.78334 96.73 4.83251C94.7792 2.88168 92.1342 1.78435 89.3753 1.78125L89.375 2.03125V1.78125L40.625 1.78125ZM52.6516 11.9375L51.5328 6.34375H78.4674L77.3487 11.9375H52.6516ZM95.2188 117.812C95.217 119.362 94.6007 120.847 93.5052 121.943C92.4096 123.038 90.9241 123.655 89.3747 123.656H40.6253C39.0759 123.655 37.5904 123.038 36.4948 121.943C35.3993 120.847 34.783 119.362 34.7812 117.812V12.1878C34.783 10.6384 35.3993 9.15294 36.4948 8.05735C37.5904 6.96176 39.0759 6.34549 40.6253 6.34375H46.8797L48.5442 14.6662C48.6476 15.1833 48.9271 15.6486 49.3349 15.983C49.7428 16.3173 50.2539 16.5 50.7813 16.5H79.2188C79.7461 16.5 80.2572 16.3173 80.6651 15.983C81.0729 15.6486 81.3524 15.1833 81.4558 14.6662L83.1203 6.34375H89.3747C90.9241 6.34549 92.4096 6.96176 93.5052 8.05735C94.6007 9.15294 95.217 10.6384 95.2188 12.1878V117.812Z" fill="#FF5672" stroke="#FF5672" stroke-width="0.5"/>
<path d="M52.8125 115.781H40.625C40.0863 115.781 39.5696 115.995 39.1887 116.376C38.8078 116.757 38.5938 117.274 38.5938 117.812C38.5938 118.351 38.8078 118.868 39.1887 119.249C39.5696 119.63 40.0863 119.844 40.625 119.844H52.8125C53.3512 119.844 53.8679 119.63 54.2488 119.249C54.6297 118.868 54.8438 118.351 54.8438 117.812C54.8438 117.274 54.6297 116.757 54.2488 116.376C53.8679 115.995 53.3512 115.781 52.8125 115.781Z" fill="#FF5672"/>
<path d="M60.9375 115.781H58.9062C58.3675 115.781 57.8509 115.995 57.4699 116.376C57.089 116.757 56.875 117.274 56.875 117.812C56.875 118.351 57.089 118.868 57.4699 119.249C57.8509 119.63 58.3675 119.844 58.9062 119.844H60.9375C61.4762 119.844 61.9929 119.63 62.3738 119.249C62.7547 118.868 62.9688 118.351 62.9688 117.812C62.9688 117.274 62.7547 116.757 62.3738 116.376C61.9929 115.995 61.4762 115.781 60.9375 115.781Z" fill="#FF5672"/>
</svg>
