<svg width="131" height="130" viewBox="0 0 131 130" fill="none" xmlns="http://www.w3.org/2000/svg">
<path d="M15.8828 58.6328C15.8828 60.0352 14.7462 61.1719 13.3438 61.1719C11.9413 61.1719 10.8047 60.0352 10.8047 58.6328C10.8047 57.2304 11.9413 56.0938 13.3438 56.0938C14.7462 56.0938 15.8828 57.2304 15.8828 58.6328Z" fill="#FF5672"/>
<path d="M51.4297 68.7891C51.4297 70.1915 50.2931 71.3281 48.8906 71.3281C47.4882 71.3281 46.3516 70.1915 46.3516 68.7891C46.3516 67.3866 47.4882 66.25 48.8906 66.25C50.2931 66.25 51.4297 67.3866 51.4297 68.7891Z" fill="#FF5672"/>
<path d="M41.2734 78.9453C41.2734 80.3477 40.1368 81.4844 38.7344 81.4844C37.3319 81.4844 36.1953 80.3477 36.1953 78.9453C36.1953 77.5429 37.3319 76.4062 38.7344 76.4062C40.1368 76.4062 41.2734 77.5429 41.2734 78.9453Z" fill="#FF5672"/>
<path d="M28.5781 68.7891C28.5781 70.1915 27.4415 71.3281 26.0391 71.3281C24.6366 71.3281 23.5 70.1915 23.5 68.7891C23.5 67.3866 24.6366 66.25 26.0391 66.25C27.4415 66.25 28.5781 67.3866 28.5781 68.7891Z" fill="#FF5672"/>
<path d="M15.8828 78.9453C15.8828 80.3477 14.7462 81.4844 13.3438 81.4844C11.9413 81.4844 10.8047 80.3477 10.8047 78.9453C10.8047 77.5429 11.9413 76.4062 13.3438 76.4062C14.7462 76.4062 15.8828 77.5429 15.8828 78.9453Z" fill="#FF5672"/>
<path d="M5.72656 68.7891C5.72656 70.1915 4.58994 71.3281 3.1875 71.3281C1.78506 71.3281 0.648438 70.1915 0.648438 68.7891C0.648438 67.3866 1.78506 66.25 3.1875 66.25C4.58994 66.25 5.72656 67.3866 5.72656 68.7891Z" fill="#FF5672"/>
<path d="M123.383 26.9141H101.547V2.53906C101.547 1.13663 100.41 0 99.0078 0H88.8516C87.4491 0 86.3125 1.13663 86.3125 2.53906V26.9141H64.4766C60.2683 26.9141 56.8594 30.323 56.8594 34.5312C56.8594 38.1316 59.3707 41.1536 62.7319 41.9441L65.0449 63.9933C64.8554 63.9903 64.666 63.9844 64.4766 63.9844H44.1641C42.7616 63.9844 41.625 65.121 41.625 66.5234C41.625 67.9259 42.7616 69.0625 44.1641 69.0625H64.4766C77.2225 69.0625 87.3281 79.4766 87.3281 91.9141C87.3281 93.3155 86.1905 94.4531 84.7891 94.4531C80.3437 94.4531 12.3147 94.4531 8.61719 94.4531C7.21674 94.4531 6.07812 93.3145 6.07812 91.9141C6.07812 80.7343 14.0405 71.6065 24.3673 69.5168C25.742 69.239 26.6306 67.8991 26.3529 66.5254C26.0742 65.1508 24.7343 64.2621 23.3606 64.5398C10.7605 67.0898 1 78.217 1 91.9141C1 94.2389 2.04836 96.3237 3.69577 97.7212C1.95512 99.6037 1 102.033 1 104.609C1 107.263 2.02455 109.682 3.69676 111.493C1.95612 112.971 1 115.071 1 117.305C1 124.305 6.69504 130 13.6953 130H107.159C110.64 130 115.784 127.423 116.254 123.22C116.362 122.247 125.109 42.0374 125.118 41.9491C128.428 41.1804 131 38.203 131 34.5312C131 30.3309 127.583 26.9141 123.383 26.9141ZM91.3906 5.07812H96.4688V26.9141H91.3906V5.07812ZM118.879 52.3047H68.9249L67.8597 42.1484H119.988L118.879 52.3047ZM70.2113 64.5755L69.4575 57.3828H118.326L113.176 104.609H92.4062C92.4062 101.955 91.3817 99.5372 89.7095 97.7261C91.4501 96.2473 92.4062 94.1476 92.4062 91.9141C92.4062 78.6574 82.9939 67.2435 70.2113 64.5755ZM66.6367 109.688L79.3321 99.5312H82.25C85.0499 99.5312 87.3281 101.809 87.3281 104.609C87.3281 107.396 85.0697 109.688 82.25 109.688H66.6367ZM11.1562 109.688C8.35634 109.688 6.07812 107.409 6.07812 104.609C6.07812 101.805 8.35138 99.5312 11.1562 99.5312H14.0742L26.7695 109.688H11.1562ZM71.2031 99.5312L59.3984 108.974L50.7676 102.07L53.9414 99.5312H71.2031ZM34.0078 108.974L22.2032 99.5283H45.8125C42.1794 102.435 37.6309 106.076 34.0078 108.974ZM46.7031 105.322L52.1601 109.688H41.2461L46.7031 105.322ZM6.07812 117.305C6.07812 115.903 7.21574 114.766 8.61719 114.766H84.7891C86.1895 114.766 87.3281 115.904 87.3281 117.305C87.3281 121.512 83.9182 124.922 79.7109 124.922C75.7565 124.922 17.6408 124.922 13.6953 124.922C9.49495 124.922 6.07812 121.505 6.07812 117.305ZM107.159 124.922H89.8662C91.5136 122.736 92.4062 120.089 92.4062 117.305C92.4062 114.979 91.3569 112.894 89.7085 111.496C90.2173 110.945 90.6636 110.337 91.0395 109.688H112.622L111.205 122.663C111.109 123.534 108.881 124.922 107.159 124.922ZM123.383 37.0703C118.462 37.0703 67.6673 37.0703 64.4766 37.0703C63.0761 37.0703 61.9375 35.9317 61.9375 34.5312C61.9375 33.1298 63.0751 31.9922 64.4766 31.9922H123.383C124.783 31.9922 125.922 33.1308 125.922 34.5312C125.922 35.9327 124.784 37.0703 123.383 37.0703Z" fill="#FF5672"/>
</svg>
